<svg width="142" height="21" viewBox="0 0 142 21" fill="none" xmlns="http://www.w3.org/2000/svg">
<path d="M14.532 13.42C13.524 11.572 12.684 10.592 12.04 10.452C12.852 10.34 13.692 9.92 14.504 9.164C15.596 8.212 16.156 6.98 16.156 5.44C16.184 4.068 15.848 2.948 15.092 2.136C13.86 0.708 11.9 0.316 8.176 0.231999C7.224 0.204 5.824 0.231999 3.948 0.316C2.072 0.371999 0.784 0.399999 0.056 0.399999C0.14 0.399999 2.744 0.456 2.744 3.004V17.396C2.744 18.544 2.24 19.356 1.484 19.664C0.784 19.972 0.42 20 0.056 20H8.68C8.204 20 7.756 20.028 7.084 19.468C6.776 19.16 6.608 18.768 6.608 18.264L6.636 10.564C7.224 10.564 8.68 10.312 10.024 12.776L12.32 16.92C12.964 18.124 13.608 19.16 14.252 20H19.852L19.32 19.776C18.564 19.524 17.22 18.348 16.352 16.752L14.532 13.42ZM9.072 9.976C8.344 10.172 7.532 10.256 6.636 10.256L6.608 0.511999C10.528 0.287998 12.516 1.604 12.516 5.3C12.516 7.848 11.368 9.388 9.072 9.976ZM27.0108 18.208C24.0148 18.18 22.1108 15.94 22.1108 12.664H31.3788C31.4628 9.304 29.4188 7.12 26.5908 6.784C25.0508 6.588 23.5948 6.896 22.2228 7.708C20.1228 9.024 19.1148 11.012 19.1428 13.644C19.1708 15.548 19.7868 17.144 20.9628 18.404C22.1388 19.664 23.6788 20.308 25.6108 20.364C27.2068 20.392 28.5228 19.972 29.5868 19.048C30.6788 18.124 31.2948 17.004 31.4908 15.632C30.7348 17.396 29.2508 18.236 27.0108 18.208ZM24.0988 7.624C25.3308 6.812 26.8988 6.7 27.8228 7.372C28.4668 7.792 28.8028 8.436 28.8308 9.332C28.8868 10.2 28.6908 10.872 28.2428 11.292C27.7668 11.852 26.9828 12.188 25.9468 12.328C25.3588 12.412 24.0988 12.44 22.1108 12.44C22.1108 11.656 22.2508 10.788 22.5588 9.808C22.8668 8.828 23.3988 8.1 24.0988 7.624ZM43.7338 7.96C43.5938 7.82 43.2018 7.484 41.8578 7.12C41.1858 6.924 40.4858 6.812 39.7298 6.812C38.1058 6.784 36.8458 7.176 35.9778 7.96C35.1098 8.716 34.6618 9.64 34.6338 10.704C34.5498 12.496 35.6978 13.924 38.9738 15.128C42.1098 16.248 43.2298 17.592 42.8098 18.908C42.5858 19.58 41.9418 19.86 40.8778 19.776C39.8418 19.664 38.7778 19.244 37.7138 18.488C36.3698 17.564 35.2498 16.248 34.3818 14.596L34.4658 18.908C36.3418 19.86 38.1618 20.336 39.9818 20.336C41.6338 20.336 42.8378 19.916 43.5938 19.104C44.3498 18.264 44.7138 17.256 44.6858 16.108C44.6578 14.344 43.5378 13.14 40.0658 11.908C38.0778 11.236 36.9578 10.2 36.7338 9.64C36.6498 9.36 36.5938 9.052 36.6218 8.744C36.7058 7.848 37.3778 7.232 38.4978 7.26C39.4778 7.316 40.4298 7.736 41.4098 8.548C42.3898 9.36 43.1458 10.312 43.7338 11.46V7.96ZM53.1374 18.712C51.3454 18.6 50.8414 17.396 50.8134 14.736V7.652H53.7254L53.9774 7.4H50.8134C50.8414 5.496 50.8414 3.676 50.8414 1.968L47.6214 3.984V7.4H46.1934L46.5294 7.652H47.6214V14.652C47.6214 18.32 48.7974 20.28 51.9334 20.308C53.1934 20.336 54.1734 19.944 54.8454 19.132C55.5174 18.32 55.9374 17.396 56.0774 16.332C55.6294 17.76 54.5654 18.824 53.1374 18.712ZM65.6281 18.068C65.6281 19.496 66.6081 20.364 68.1481 20.364C69.1561 20.364 69.9401 19.972 70.3601 19.3C70.8081 18.6 70.9201 18.208 71.1161 17.508L71.0321 17.76C70.9201 18.096 70.5841 18.544 70.1641 18.572C69.4641 18.936 68.8201 18.6 68.8201 17.228V10.732C68.9601 6.98 65.3481 6.448 62.8841 6.896C61.5401 7.12 60.0841 7.736 58.9361 8.996C58.3481 9.612 58.0681 10.312 58.0401 11.068C57.9561 13.476 61.3161 13.14 61.2321 11.236C61.2041 10.788 60.7841 9.976 60.7841 9.5C60.7841 7.904 61.5401 7.316 62.7721 7.092C64.6481 6.728 65.6281 8.016 65.6281 10.704V12.272C65.3761 12.356 64.9001 12.468 64.2561 12.636C63.6121 12.804 63.1641 12.916 62.9121 13L61.7081 13.364C60.6721 13.7 60.3921 13.868 59.6081 14.232C58.8241 14.568 58.6001 14.932 58.1521 15.408C57.7321 15.856 57.5921 16.416 57.5641 17.088C57.5361 17.928 57.7601 18.684 58.2921 19.384C58.8241 20.056 59.6641 20.392 60.8681 20.392C61.9601 20.392 62.9121 20.084 63.7241 19.384L64.6481 18.544C64.8441 18.348 65.1241 18.012 65.4881 17.592C64.4521 18.516 63.3881 18.852 62.2961 18.628C61.1761 18.404 60.5601 17.396 60.6441 16.304C60.7281 14.484 62.1841 13.56 65.6281 12.524V18.068ZM77.3391 18.152C77.0311 17.956 76.7791 17.62 76.6391 17.144C76.4991 16.612 76.4151 15.268 76.4151 13.056V9.892V7.428H71.0391C71.3471 7.428 71.5991 7.484 72.1871 7.736C72.8311 7.988 73.2511 8.772 73.2511 9.892V14.652V15.044V16.332L73.3351 17.452C73.3631 17.928 73.4471 18.292 73.5591 18.544C73.9511 19.412 74.4551 20.14 75.7991 20.252C76.9471 20.364 78.0671 20.084 79.1591 19.412C80.2511 18.712 81.0911 17.956 81.6791 17.144C81.0911 17.788 80.3351 18.208 79.4111 18.404C78.4871 18.6 77.8151 18.516 77.3391 18.152ZM81.8191 18.544V20.504L86.1871 17.956C85.9631 17.956 84.9831 18.096 84.9831 16.92V7.428H79.6351C79.9431 7.428 80.1951 7.456 80.7831 7.708C81.3711 7.932 81.8191 8.632 81.8191 9.668V18.544ZM97.1504 6.812C95.4704 6.728 93.6504 7.932 92.7264 9.696V9.248V8.604V6.728L88.2744 9.304C89.0304 9.164 89.5624 9.528 89.5624 10.62V17.396V17.76C89.5624 18.796 89.0864 19.496 88.4144 19.748C87.7704 19.972 87.4904 20 87.1824 20H95.1344C94.8264 20 94.5464 19.972 93.8744 19.748C93.2024 19.496 92.7264 18.796 92.7264 17.76V10.088C93.6504 8.716 94.5744 8.352 95.4984 9.024C95.6944 9.164 96.1424 9.864 96.5904 10.172C96.8424 10.312 97.1504 10.396 97.5424 10.396C98.5504 10.368 99.0264 9.556 99.0264 8.688C99.0264 7.82 98.4664 6.84 97.1504 6.812ZM108.558 18.068C108.558 19.496 109.538 20.364 111.078 20.364C112.086 20.364 112.87 19.972 113.29 19.3C113.738 18.6 113.85 18.208 114.046 17.508L113.962 17.76C113.85 18.096 113.514 18.544 113.094 18.572C112.394 18.936 111.75 18.6 111.75 17.228V10.732C111.89 6.98 108.278 6.448 105.814 6.896C104.47 7.12 103.014 7.736 101.866 8.996C101.278 9.612 100.998 10.312 100.97 11.068C100.886 13.476 104.246 13.14 104.162 11.236C104.134 10.788 103.714 9.976 103.714 9.5C103.714 7.904 104.47 7.316 105.702 7.092C107.578 6.728 108.558 8.016 108.558 10.704V12.272C108.306 12.356 107.83 12.468 107.186 12.636C106.542 12.804 106.094 12.916 105.842 13L104.638 13.364C103.602 13.7 103.322 13.868 102.538 14.232C101.754 14.568 101.53 14.932 101.082 15.408C100.662 15.856 100.522 16.416 100.494 17.088C100.466 17.928 100.69 18.684 101.222 19.384C101.754 20.056 102.594 20.392 103.798 20.392C104.89 20.392 105.842 20.084 106.654 19.384L107.578 18.544C107.774 18.348 108.054 18.012 108.418 17.592C107.382 18.516 106.318 18.852 105.226 18.628C104.106 18.404 103.49 17.396 103.574 16.304C103.658 14.484 105.114 13.56 108.558 12.524V18.068ZM120.045 6.728L115.509 9.388C115.705 9.304 116.881 9.08 116.881 10.62V17.536C116.881 18.656 116.461 19.44 115.873 19.692C115.285 19.944 115.033 20 114.725 20H122.257C121.949 20 121.725 19.944 121.081 19.692C120.493 19.44 120.045 18.656 120.045 17.536V6.728ZM128.473 12.552V12.188C128.473 11.6 128.473 11.152 128.445 10.9C128.445 10.62 128.417 10.228 128.389 9.752C128.361 9.276 128.277 8.912 128.165 8.66C127.857 7.848 127.157 6.924 125.897 6.924C124.749 6.84 123.657 7.12 122.649 7.792C121.641 8.464 120.829 9.22 120.213 10.06C120.801 9.416 121.529 8.996 122.369 8.8C123.209 8.604 123.881 8.688 124.357 9.052C124.945 9.416 125.225 10.396 125.253 11.292C125.281 11.74 125.281 12.496 125.281 13.532V14.148V17.536C125.281 18.656 124.861 19.44 124.273 19.692C123.685 19.944 123.433 20 123.125 20H130.657C130.349 20 130.125 19.944 129.481 19.692C128.893 19.44 128.473 18.656 128.473 17.536V12.552ZM138.45 18.712C136.658 18.6 136.154 17.396 136.126 14.736V7.652H139.038L139.29 7.4H136.126C136.154 5.496 136.154 3.676 136.154 1.968L132.934 3.984V7.4H131.506L131.842 7.652H132.934V14.652C132.934 18.32 134.11 20.28 137.246 20.308C138.506 20.336 139.486 19.944 140.158 19.132C140.83 18.32 141.25 17.396 141.39 16.332C140.942 17.76 139.878 18.824 138.45 18.712Z" fill="white"/>
</svg>
