<svg width="398" height="4" viewBox="0 0 398 4" fill="none" xmlns="http://www.w3.org/2000/svg">
<path opacity="0.5" d="M0.26 1.9C0.26 2.52 0.8 3.08 1.44 3.08C2.08 3.08 2.6 2.54 2.6 1.9C2.6 1.26 2.08 0.74 1.44 0.74C0.8 0.74 0.26 1.26 0.26 1.9ZM4.96703 1.9C4.96703 2.52 5.50703 3.08 6.14703 3.08C6.78703 3.08 7.30703 2.54 7.30703 1.9C7.30703 1.26 6.78703 0.74 6.14703 0.74C5.50703 0.74 4.96703 1.26 4.96703 1.9ZM9.67406 1.9C9.67406 2.52 10.2141 3.08 10.8541 3.08C11.4941 3.08 12.0141 2.54 12.0141 1.9C12.0141 1.26 11.4941 0.74 10.8541 0.74C10.2141 0.74 9.67406 1.26 9.67406 1.9ZM14.3811 1.9C14.3811 2.52 14.9211 3.08 15.5611 3.08C16.2011 3.08 16.7211 2.54 16.7211 1.9C16.7211 1.26 16.2011 0.74 15.5611 0.74C14.9211 0.74 14.3811 1.26 14.3811 1.9ZM19.0881 1.9C19.0881 2.52 19.6281 3.08 20.2681 3.08C20.9081 3.08 21.4281 2.54 21.4281 1.9C21.4281 1.26 20.9081 0.74 20.2681 0.74C19.6281 0.74 19.0881 1.26 19.0881 1.9ZM23.7952 1.9C23.7952 2.52 24.3352 3.08 24.9752 3.08C25.6152 3.08 26.1352 2.54 26.1352 1.9C26.1352 1.26 25.6152 0.74 24.9752 0.74C24.3352 0.74 23.7952 1.26 23.7952 1.9ZM28.5022 1.9C28.5022 2.52 29.0422 3.08 29.6822 3.08C30.3222 3.08 30.8422 2.54 30.8422 1.9C30.8422 1.26 30.3222 0.74 29.6822 0.74C29.0422 0.74 28.5022 1.26 28.5022 1.9ZM33.2092 1.9C33.2092 2.52 33.7492 3.08 34.3892 3.08C35.0292 3.08 35.5492 2.54 35.5492 1.9C35.5492 1.26 35.0292 0.74 34.3892 0.74C33.7492 0.74 33.2092 1.26 33.2092 1.9ZM37.9163 1.9C37.9163 2.52 38.4563 3.08 39.0963 3.08C39.7363 3.08 40.2563 2.54 40.2563 1.9C40.2563 1.26 39.7363 0.74 39.0963 0.74C38.4563 0.74 37.9163 1.26 37.9163 1.9ZM42.6233 1.9C42.6233 2.52 43.1633 3.08 43.8033 3.08C44.4433 3.08 44.9633 2.54 44.9633 1.9C44.9633 1.26 44.4433 0.74 43.8033 0.74C43.1633 0.74 42.6233 1.26 42.6233 1.9ZM47.3303 1.9C47.3303 2.52 47.8703 3.08 48.5103 3.08C49.1503 3.08 49.6703 2.54 49.6703 1.9C49.6703 1.26 49.1503 0.74 48.5103 0.74C47.8703 0.74 47.3303 1.26 47.3303 1.9ZM52.0373 1.9C52.0373 2.52 52.5773 3.08 53.2173 3.08C53.8573 3.08 54.3773 2.54 54.3773 1.9C54.3773 1.26 53.8573 0.74 53.2173 0.74C52.5773 0.74 52.0373 1.26 52.0373 1.9ZM56.7444 1.9C56.7444 2.52 57.2844 3.08 57.9244 3.08C58.5644 3.08 59.0844 2.54 59.0844 1.9C59.0844 1.26 58.5644 0.74 57.9244 0.74C57.2844 0.74 56.7444 1.26 56.7444 1.9ZM61.4514 1.9C61.4514 2.52 61.9914 3.08 62.6314 3.08C63.2714 3.08 63.7914 2.54 63.7914 1.9C63.7914 1.26 63.2714 0.74 62.6314 0.74C61.9914 0.74 61.4514 1.26 61.4514 1.9ZM66.1584 1.9C66.1584 2.52 66.6984 3.08 67.3384 3.08C67.9784 3.08 68.4984 2.54 68.4984 1.9C68.4984 1.26 67.9784 0.74 67.3384 0.74C66.6984 0.74 66.1584 1.26 66.1584 1.9ZM70.8655 1.9C70.8655 2.52 71.4055 3.08 72.0455 3.08C72.6855 3.08 73.2055 2.54 73.2055 1.9C73.2055 1.26 72.6855 0.74 72.0455 0.74C71.4055 0.74 70.8655 1.26 70.8655 1.9ZM75.5725 1.9C75.5725 2.52 76.1125 3.08 76.7525 3.08C77.3925 3.08 77.9125 2.54 77.9125 1.9C77.9125 1.26 77.3925 0.74 76.7525 0.74C76.1125 0.74 75.5725 1.26 75.5725 1.9ZM80.2795 1.9C80.2795 2.52 80.8195 3.08 81.4595 3.08C82.0995 3.08 82.6195 2.54 82.6195 1.9C82.6195 1.26 82.0995 0.74 81.4595 0.74C80.8195 0.74 80.2795 1.26 80.2795 1.9ZM84.9866 1.9C84.9866 2.52 85.5266 3.08 86.1666 3.08C86.8066 3.08 87.3266 2.54 87.3266 1.9C87.3266 1.26 86.8066 0.74 86.1666 0.74C85.5266 0.74 84.9866 1.26 84.9866 1.9ZM89.6936 1.9C89.6936 2.52 90.2336 3.08 90.8736 3.08C91.5136 3.08 92.0336 2.54 92.0336 1.9C92.0336 1.26 91.5136 0.74 90.8736 0.74C90.2336 0.74 89.6936 1.26 89.6936 1.9ZM94.4006 1.9C94.4006 2.52 94.9406 3.08 95.5806 3.08C96.2206 3.08 96.7406 2.54 96.7406 1.9C96.7406 1.26 96.2206 0.74 95.5806 0.74C94.9406 0.74 94.4006 1.26 94.4006 1.9ZM99.1077 1.9C99.1077 2.52 99.6477 3.08 100.288 3.08C100.928 3.08 101.448 2.54 101.448 1.9C101.448 1.26 100.928 0.74 100.288 0.74C99.6477 0.74 99.1077 1.26 99.1077 1.9ZM103.815 1.9C103.815 2.52 104.355 3.08 104.995 3.08C105.635 3.08 106.155 2.54 106.155 1.9C106.155 1.26 105.635 0.74 104.995 0.74C104.355 0.74 103.815 1.26 103.815 1.9ZM108.522 1.9C108.522 2.52 109.062 3.08 109.702 3.08C110.342 3.08 110.862 2.54 110.862 1.9C110.862 1.26 110.342 0.74 109.702 0.74C109.062 0.74 108.522 1.26 108.522 1.9ZM113.229 1.9C113.229 2.52 113.769 3.08 114.409 3.08C115.049 3.08 115.569 2.54 115.569 1.9C115.569 1.26 115.049 0.74 114.409 0.74C113.769 0.74 113.229 1.26 113.229 1.9ZM117.936 1.9C117.936 2.52 118.476 3.08 119.116 3.08C119.756 3.08 120.276 2.54 120.276 1.9C120.276 1.26 119.756 0.74 119.116 0.74C118.476 0.74 117.936 1.26 117.936 1.9ZM122.643 1.9C122.643 2.52 123.183 3.08 123.823 3.08C124.463 3.08 124.983 2.54 124.983 1.9C124.983 1.26 124.463 0.74 123.823 0.74C123.183 0.74 122.643 1.26 122.643 1.9ZM127.35 1.9C127.35 2.52 127.89 3.08 128.53 3.08C129.17 3.08 129.69 2.54 129.69 1.9C129.69 1.26 129.17 0.74 128.53 0.74C127.89 0.74 127.35 1.26 127.35 1.9ZM132.057 1.9C132.057 2.52 132.597 3.08 133.237 3.08C133.877 3.08 134.397 2.54 134.397 1.9C134.397 1.26 133.877 0.74 133.237 0.74C132.597 0.74 132.057 1.26 132.057 1.9ZM136.764 1.9C136.764 2.52 137.304 3.08 137.944 3.08C138.584 3.08 139.104 2.54 139.104 1.9C139.104 1.26 138.584 0.74 137.944 0.74C137.304 0.74 136.764 1.26 136.764 1.9ZM141.471 1.9C141.471 2.52 142.011 3.08 142.651 3.08C143.291 3.08 143.811 2.54 143.811 1.9C143.811 1.26 143.291 0.74 142.651 0.74C142.011 0.74 141.471 1.26 141.471 1.9ZM146.178 1.9C146.178 2.52 146.718 3.08 147.358 3.08C147.998 3.08 148.518 2.54 148.518 1.9C148.518 1.26 147.998 0.74 147.358 0.74C146.718 0.74 146.178 1.26 146.178 1.9ZM150.885 1.9C150.885 2.52 151.425 3.08 152.065 3.08C152.705 3.08 153.225 2.54 153.225 1.9C153.225 1.26 152.705 0.74 152.065 0.74C151.425 0.74 150.885 1.26 150.885 1.9ZM155.592 1.9C155.592 2.52 156.132 3.08 156.772 3.08C157.412 3.08 157.932 2.54 157.932 1.9C157.932 1.26 157.412 0.74 156.772 0.74C156.132 0.74 155.592 1.26 155.592 1.9ZM160.299 1.9C160.299 2.52 160.839 3.08 161.479 3.08C162.119 3.08 162.639 2.54 162.639 1.9C162.639 1.26 162.119 0.74 161.479 0.74C160.839 0.74 160.299 1.26 160.299 1.9ZM165.006 1.9C165.006 2.52 165.546 3.08 166.186 3.08C166.826 3.08 167.346 2.54 167.346 1.9C167.346 1.26 166.826 0.74 166.186 0.74C165.546 0.74 165.006 1.26 165.006 1.9ZM169.713 1.9C169.713 2.52 170.253 3.08 170.893 3.08C171.533 3.08 172.053 2.54 172.053 1.9C172.053 1.26 171.533 0.74 170.893 0.74C170.253 0.74 169.713 1.26 169.713 1.9ZM174.42 1.9C174.42 2.52 174.96 3.08 175.6 3.08C176.24 3.08 176.76 2.54 176.76 1.9C176.76 1.26 176.24 0.74 175.6 0.74C174.96 0.74 174.42 1.26 174.42 1.9ZM179.127 1.9C179.127 2.52 179.667 3.08 180.307 3.08C180.947 3.08 181.467 2.54 181.467 1.9C181.467 1.26 180.947 0.74 180.307 0.74C179.667 0.74 179.127 1.26 179.127 1.9ZM183.834 1.9C183.834 2.52 184.374 3.08 185.014 3.08C185.654 3.08 186.174 2.54 186.174 1.9C186.174 1.26 185.654 0.74 185.014 0.74C184.374 0.74 183.834 1.26 183.834 1.9ZM188.541 1.9C188.541 2.52 189.081 3.08 189.721 3.08C190.361 3.08 190.881 2.54 190.881 1.9C190.881 1.26 190.361 0.74 189.721 0.74C189.081 0.74 188.541 1.26 188.541 1.9ZM193.248 1.9C193.248 2.52 193.788 3.08 194.428 3.08C195.068 3.08 195.588 2.54 195.588 1.9C195.588 1.26 195.068 0.74 194.428 0.74C193.788 0.74 193.248 1.26 193.248 1.9ZM197.955 1.9C197.955 2.52 198.495 3.08 199.135 3.08C199.775 3.08 200.295 2.54 200.295 1.9C200.295 1.26 199.775 0.74 199.135 0.74C198.495 0.74 197.955 1.26 197.955 1.9ZM202.662 1.9C202.662 2.52 203.202 3.08 203.842 3.08C204.482 3.08 205.002 2.54 205.002 1.9C205.002 1.26 204.482 0.74 203.842 0.74C203.202 0.74 202.662 1.26 202.662 1.9ZM207.369 1.9C207.369 2.52 207.909 3.08 208.549 3.08C209.189 3.08 209.709 2.54 209.709 1.9C209.709 1.26 209.189 0.74 208.549 0.74C207.909 0.74 207.369 1.26 207.369 1.9ZM212.076 1.9C212.076 2.52 212.616 3.08 213.256 3.08C213.896 3.08 214.416 2.54 214.416 1.9C214.416 1.26 213.896 0.74 213.256 0.74C212.616 0.74 212.076 1.26 212.076 1.9ZM216.783 1.9C216.783 2.52 217.323 3.08 217.963 3.08C218.603 3.08 219.123 2.54 219.123 1.9C219.123 1.26 218.603 0.74 217.963 0.74C217.323 0.74 216.783 1.26 216.783 1.9ZM221.49 1.9C221.49 2.52 222.03 3.08 222.67 3.08C223.31 3.08 223.83 2.54 223.83 1.9C223.83 1.26 223.31 0.74 222.67 0.74C222.03 0.74 221.49 1.26 221.49 1.9ZM226.198 1.9C226.198 2.52 226.738 3.08 227.378 3.08C228.018 3.08 228.538 2.54 228.538 1.9C228.538 1.26 228.018 0.74 227.378 0.74C226.738 0.74 226.198 1.26 226.198 1.9ZM230.905 1.9C230.905 2.52 231.445 3.08 232.085 3.08C232.725 3.08 233.245 2.54 233.245 1.9C233.245 1.26 232.725 0.74 232.085 0.74C231.445 0.74 230.905 1.26 230.905 1.9ZM235.612 1.9C235.612 2.52 236.152 3.08 236.792 3.08C237.432 3.08 237.952 2.54 237.952 1.9C237.952 1.26 237.432 0.74 236.792 0.74C236.152 0.74 235.612 1.26 235.612 1.9ZM240.319 1.9C240.319 2.52 240.859 3.08 241.499 3.08C242.139 3.08 242.659 2.54 242.659 1.9C242.659 1.26 242.139 0.74 241.499 0.74C240.859 0.74 240.319 1.26 240.319 1.9ZM245.026 1.9C245.026 2.52 245.566 3.08 246.206 3.08C246.846 3.08 247.366 2.54 247.366 1.9C247.366 1.26 246.846 0.74 246.206 0.74C245.566 0.74 245.026 1.26 245.026 1.9ZM249.733 1.9C249.733 2.52 250.273 3.08 250.913 3.08C251.553 3.08 252.073 2.54 252.073 1.9C252.073 1.26 251.553 0.74 250.913 0.74C250.273 0.74 249.733 1.26 249.733 1.9ZM254.44 1.9C254.44 2.52 254.98 3.08 255.62 3.08C256.26 3.08 256.78 2.54 256.78 1.9C256.78 1.26 256.26 0.74 255.62 0.74C254.98 0.74 254.44 1.26 254.44 1.9ZM259.147 1.9C259.147 2.52 259.687 3.08 260.327 3.08C260.967 3.08 261.487 2.54 261.487 1.9C261.487 1.26 260.967 0.74 260.327 0.74C259.687 0.74 259.147 1.26 259.147 1.9ZM263.854 1.9C263.854 2.52 264.394 3.08 265.034 3.08C265.674 3.08 266.194 2.54 266.194 1.9C266.194 1.26 265.674 0.74 265.034 0.74C264.394 0.74 263.854 1.26 263.854 1.9ZM268.561 1.9C268.561 2.52 269.101 3.08 269.741 3.08C270.381 3.08 270.901 2.54 270.901 1.9C270.901 1.26 270.381 0.74 269.741 0.74C269.101 0.74 268.561 1.26 268.561 1.9ZM273.268 1.9C273.268 2.52 273.808 3.08 274.448 3.08C275.088 3.08 275.608 2.54 275.608 1.9C275.608 1.26 275.088 0.74 274.448 0.74C273.808 0.74 273.268 1.26 273.268 1.9ZM277.975 1.9C277.975 2.52 278.515 3.08 279.155 3.08C279.795 3.08 280.315 2.54 280.315 1.9C280.315 1.26 279.795 0.74 279.155 0.74C278.515 0.74 277.975 1.26 277.975 1.9ZM282.682 1.9C282.682 2.52 283.222 3.08 283.862 3.08C284.502 3.08 285.022 2.54 285.022 1.9C285.022 1.26 284.502 0.74 283.862 0.74C283.222 0.74 282.682 1.26 282.682 1.9ZM287.389 1.9C287.389 2.52 287.929 3.08 288.569 3.08C289.209 3.08 289.729 2.54 289.729 1.9C289.729 1.26 289.209 0.74 288.569 0.74C287.929 0.74 287.389 1.26 287.389 1.9ZM292.096 1.9C292.096 2.52 292.636 3.08 293.276 3.08C293.916 3.08 294.436 2.54 294.436 1.9C294.436 1.26 293.916 0.74 293.276 0.74C292.636 0.74 292.096 1.26 292.096 1.9ZM296.803 1.9C296.803 2.52 297.343 3.08 297.983 3.08C298.623 3.08 299.143 2.54 299.143 1.9C299.143 1.26 298.623 0.74 297.983 0.74C297.343 0.74 296.803 1.26 296.803 1.9ZM301.51 1.9C301.51 2.52 302.05 3.08 302.69 3.08C303.33 3.08 303.85 2.54 303.85 1.9C303.85 1.26 303.33 0.74 302.69 0.74C302.05 0.74 301.51 1.26 301.51 1.9ZM306.217 1.9C306.217 2.52 306.757 3.08 307.397 3.08C308.037 3.08 308.557 2.54 308.557 1.9C308.557 1.26 308.037 0.74 307.397 0.74C306.757 0.74 306.217 1.26 306.217 1.9ZM310.924 1.9C310.924 2.52 311.464 3.08 312.104 3.08C312.744 3.08 313.264 2.54 313.264 1.9C313.264 1.26 312.744 0.74 312.104 0.74C311.464 0.74 310.924 1.26 310.924 1.9ZM315.631 1.9C315.631 2.52 316.171 3.08 316.811 3.08C317.451 3.08 317.971 2.54 317.971 1.9C317.971 1.26 317.451 0.74 316.811 0.74C316.171 0.74 315.631 1.26 315.631 1.9ZM320.338 1.9C320.338 2.52 320.878 3.08 321.518 3.08C322.158 3.08 322.678 2.54 322.678 1.9C322.678 1.26 322.158 0.74 321.518 0.74C320.878 0.74 320.338 1.26 320.338 1.9ZM325.045 1.9C325.045 2.52 325.585 3.08 326.225 3.08C326.865 3.08 327.385 2.54 327.385 1.9C327.385 1.26 326.865 0.74 326.225 0.74C325.585 0.74 325.045 1.26 325.045 1.9ZM329.752 1.9C329.752 2.52 330.292 3.08 330.932 3.08C331.572 3.08 332.092 2.54 332.092 1.9C332.092 1.26 331.572 0.74 330.932 0.74C330.292 0.74 329.752 1.26 329.752 1.9ZM334.459 1.9C334.459 2.52 334.999 3.08 335.639 3.08C336.279 3.08 336.799 2.54 336.799 1.9C336.799 1.26 336.279 0.74 335.639 0.74C334.999 0.74 334.459 1.26 334.459 1.9ZM339.166 1.9C339.166 2.52 339.706 3.08 340.346 3.08C340.986 3.08 341.506 2.54 341.506 1.9C341.506 1.26 340.986 0.74 340.346 0.74C339.706 0.74 339.166 1.26 339.166 1.9ZM343.873 1.9C343.873 2.52 344.413 3.08 345.053 3.08C345.693 3.08 346.213 2.54 346.213 1.9C346.213 1.26 345.693 0.74 345.053 0.74C344.413 0.74 343.873 1.26 343.873 1.9ZM348.58 1.9C348.58 2.52 349.12 3.08 349.76 3.08C350.4 3.08 350.92 2.54 350.92 1.9C350.92 1.26 350.4 0.74 349.76 0.74C349.12 0.74 348.58 1.26 348.58 1.9ZM353.287 1.9C353.287 2.52 353.827 3.08 354.467 3.08C355.107 3.08 355.627 2.54 355.627 1.9C355.627 1.26 355.107 0.74 354.467 0.74C353.827 0.74 353.287 1.26 353.287 1.9ZM357.994 1.9C357.994 2.52 358.534 3.08 359.174 3.08C359.814 3.08 360.334 2.54 360.334 1.9C360.334 1.26 359.814 0.74 359.174 0.74C358.534 0.74 357.994 1.26 357.994 1.9ZM362.701 1.9C362.701 2.52 363.241 3.08 363.881 3.08C364.521 3.08 365.041 2.54 365.041 1.9C365.041 1.26 364.521 0.74 363.881 0.74C363.241 0.74 362.701 1.26 362.701 1.9ZM367.408 1.9C367.408 2.52 367.948 3.08 368.588 3.08C369.228 3.08 369.748 2.54 369.748 1.9C369.748 1.26 369.228 0.74 368.588 0.74C367.948 0.74 367.408 1.26 367.408 1.9ZM372.115 1.9C372.115 2.52 372.655 3.08 373.295 3.08C373.935 3.08 374.455 2.54 374.455 1.9C374.455 1.26 373.935 0.74 373.295 0.74C372.655 0.74 372.115 1.26 372.115 1.9ZM376.823 1.9C376.823 2.52 377.363 3.08 378.003 3.08C378.643 3.08 379.163 2.54 379.163 1.9C379.163 1.26 378.643 0.74 378.003 0.74C377.363 0.74 376.823 1.26 376.823 1.9ZM381.53 1.9C381.53 2.52 382.07 3.08 382.71 3.08C383.35 3.08 383.87 2.54 383.87 1.9C383.87 1.26 383.35 0.74 382.71 0.74C382.07 0.74 381.53 1.26 381.53 1.9ZM386.237 1.9C386.237 2.52 386.777 3.08 387.417 3.08C388.057 3.08 388.577 2.54 388.577 1.9C388.577 1.26 388.057 0.74 387.417 0.74C386.777 0.74 386.237 1.26 386.237 1.9ZM390.944 1.9C390.944 2.52 391.484 3.08 392.124 3.08C392.764 3.08 393.284 2.54 393.284 1.9C393.284 1.26 392.764 0.74 392.124 0.74C391.484 0.74 390.944 1.26 390.944 1.9ZM395.651 1.9C395.651 2.52 396.191 3.08 396.831 3.08C397.471 3.08 397.991 2.54 397.991 1.9C397.991 1.26 397.471 0.74 396.831 0.74C396.191 0.74 395.651 1.26 395.651 1.9Z" fill="white"/>
</svg>
